<mxfile host="Electron" agent="Mozilla/5.0 (Windows NT 10.0; Win64; x64) AppleWebKit/537.36 (KHTML, like Gecko) draw.io/27.0.9 Chrome/134.0.6998.205 Electron/35.4.0 Safari/537.36" version="27.0.9">
  <diagram id="zcJRYihM3TNGGiDN9ozP" name="Page-1">
    <mxGraphModel dx="595" dy="362" grid="0" gridSize="10" guides="1" tooltips="1" connect="1" arrows="1" fold="1" page="1" pageScale="1" pageWidth="850" pageHeight="1100" math="0" shadow="0">
      <root>
        <mxCell id="0" />
        <mxCell id="1" parent="0" />
        <mxCell id="e6hvxNlIzSLK3bhziamK-230" value="" style="rounded=0;whiteSpace=wrap;html=1;fillColor=none;strokeColor=none;" parent="1" vertex="1">
          <mxGeometry x="130" y="280" width="500" height="630" as="geometry" />
        </mxCell>
        <mxCell id="33" value="" style="rounded=0;whiteSpace=wrap;html=1;fillColor=none;" parent="1" vertex="1">
          <mxGeometry x="260" y="680" width="80" height="130" as="geometry" />
        </mxCell>
        <mxCell id="217" style="html=1;entryX=0.75;entryY=1;entryDx=0;entryDy=0;dashed=1;dashPattern=1 4;arcSize=30;exitX=0.806;exitY=1.005;exitDx=0;exitDy=0;endArrow=blockThin;endFill=0;fillColor=none;exitPerimeter=0;" parent="1" source="5" target="132" edge="1">
          <mxGeometry relative="1" as="geometry">
            <mxPoint x="330" y="840" as="sourcePoint" />
            <mxPoint x="260" y="840" as="targetPoint" />
            <Array as="points">
              <mxPoint x="310" y="900" />
              <mxPoint x="510" y="900" />
            </Array>
          </mxGeometry>
        </mxCell>
        <mxCell id="4" value="" style="rounded=0;whiteSpace=wrap;html=1;movable=1;resizable=1;rotatable=1;deletable=1;editable=1;locked=0;connectable=1;fillColor=none;" parent="1" vertex="1">
          <mxGeometry x="300" y="510" width="320" height="150" as="geometry" />
        </mxCell>
        <mxCell id="16" value="" style="rounded=0;whiteSpace=wrap;html=1;fillColor=none;" parent="1" vertex="1">
          <mxGeometry x="400" y="368.86" width="210" height="120.57" as="geometry" />
        </mxCell>
        <mxCell id="32" value="&lt;h3 style=&quot;&quot;&gt;&lt;br&gt;&lt;/h3&gt;" style="rounded=0;whiteSpace=wrap;html=1;align=center;fillColor=none;" parent="1" vertex="1">
          <mxGeometry x="349.81" y="750" width="80" height="70" as="geometry" />
        </mxCell>
        <mxCell id="226" style="edgeStyle=none;html=1;exitX=0.5;exitY=0;exitDx=0;exitDy=0;entryX=0.5;entryY=1;entryDx=0;entryDy=0;fillColor=none;" parent="1" source="2" target="223" edge="1">
          <mxGeometry relative="1" as="geometry" />
        </mxCell>
        <mxCell id="2" value="Main App" style="rounded=0;whiteSpace=wrap;html=1;fillColor=none;" parent="1" vertex="1">
          <mxGeometry x="305" y="449.43" width="70" height="40" as="geometry" />
        </mxCell>
        <mxCell id="58" style="edgeStyle=none;shape=connector;rounded=1;html=1;exitX=0.138;exitY=1.002;exitDx=0;exitDy=0;align=center;verticalAlign=middle;fontFamily=Helvetica;fontSize=11;fontColor=default;labelBackgroundColor=default;endArrow=box;startArrow=block;startFill=0;endFill=0;exitPerimeter=0;entryX=0.838;entryY=0.003;entryDx=0;entryDy=0;entryPerimeter=0;fillColor=none;" parent="1" source="3" target="36" edge="1">
          <mxGeometry relative="1" as="geometry">
            <mxPoint x="295" y="680" as="targetPoint" />
          </mxGeometry>
        </mxCell>
        <mxCell id="3" value="Screen Service" style="rounded=0;whiteSpace=wrap;html=1;fillColor=none;" parent="1" vertex="1">
          <mxGeometry x="310" y="540" width="45" height="40" as="geometry" />
        </mxCell>
        <mxCell id="5" value="Screen Base" style="rounded=0;whiteSpace=wrap;html=1;fillColor=none;" parent="1" vertex="1">
          <mxGeometry x="270" y="750" width="50" height="40" as="geometry" />
        </mxCell>
        <mxCell id="13" value="" style="endArrow=ERzeroToMany;dashed=1;html=1;endFill=0;exitX=0.407;exitY=1;exitDx=0;exitDy=0;strokeWidth=1;entryX=0.54;entryY=-0.001;entryDx=0;entryDy=0;startArrow=ERzeroToOne;startFill=0;exitPerimeter=0;entryPerimeter=0;fillColor=none;" parent="1" source="2" target="3" edge="1">
          <mxGeometry width="50" height="50" relative="1" as="geometry">
            <mxPoint x="480" y="460" as="sourcePoint" />
            <mxPoint x="300" y="430" as="targetPoint" />
            <Array as="points" />
          </mxGeometry>
        </mxCell>
        <mxCell id="92" style="edgeStyle=none;shape=connector;rounded=1;html=1;exitX=0.5;exitY=0;exitDx=0;exitDy=0;entryX=0.5;entryY=1;entryDx=0;entryDy=0;dashed=1;align=center;verticalAlign=middle;fontFamily=Helvetica;fontSize=11;fontColor=default;labelBackgroundColor=default;endArrow=classic;endFill=1;dashPattern=1 4;fillColor=none;" parent="1" source="24" target="27" edge="1">
          <mxGeometry relative="1" as="geometry" />
        </mxCell>
        <mxCell id="166" style="edgeStyle=none;html=1;exitX=0.5;exitY=0;exitDx=0;exitDy=0;entryX=0.5;entryY=1;entryDx=0;entryDy=0;dashed=1;dashPattern=1 4;arcSize=30;fillColor=none;" parent="1" source="24" target="5" edge="1">
          <mxGeometry relative="1" as="geometry">
            <Array as="points">
              <mxPoint x="430" y="830" />
              <mxPoint x="295" y="830" />
            </Array>
          </mxGeometry>
        </mxCell>
        <mxCell id="24" value="Ace Of Base" style="rounded=0;whiteSpace=wrap;html=1;fillColor=none;" parent="1" vertex="1">
          <mxGeometry x="410" y="850" width="60" height="40" as="geometry" />
        </mxCell>
        <mxCell id="95" style="edgeStyle=none;shape=connector;rounded=1;html=1;entryX=0.568;entryY=1.005;entryDx=0;entryDy=0;dashed=1;align=center;verticalAlign=middle;fontFamily=Helvetica;fontSize=11;fontColor=default;labelBackgroundColor=default;endArrow=classic;endFill=1;dashPattern=1 4;exitX=0.5;exitY=0;exitDx=0;exitDy=0;entryPerimeter=0;fillColor=none;" parent="1" source="26" target="37" edge="1">
          <mxGeometry relative="1" as="geometry">
            <Array as="points" />
            <mxPoint x="390" y="770" as="sourcePoint" />
          </mxGeometry>
        </mxCell>
        <mxCell id="26" value="Shell Base" style="rounded=0;whiteSpace=wrap;html=1;fillColor=none;" parent="1" vertex="1">
          <mxGeometry x="364.81" y="760" width="50" height="31" as="geometry" />
        </mxCell>
        <mxCell id="27" value="Service Base" style="rounded=0;whiteSpace=wrap;html=1;fillColor=none;" parent="1" vertex="1">
          <mxGeometry x="410" y="617" width="60" height="30" as="geometry" />
        </mxCell>
        <mxCell id="36" value="TDE Screen" style="rounded=0;whiteSpace=wrap;html=1;fillColor=none;" parent="1" vertex="1">
          <mxGeometry x="275" y="700" width="50" height="30" as="geometry" />
        </mxCell>
        <mxCell id="38" value="&lt;h3&gt;&lt;span style=&quot;font-weight: normal;&quot;&gt;Shell&amp;nbsp; SDK&lt;/span&gt;&lt;/h3&gt;" style="text;html=1;align=center;verticalAlign=middle;whiteSpace=wrap;rounded=0;fillColor=none;fontStyle=0" parent="1" vertex="1">
          <mxGeometry x="340" y="800" width="100" height="20" as="geometry" />
        </mxCell>
        <mxCell id="40" value="&lt;h3&gt;&lt;span style=&quot;font-weight: normal;&quot;&gt;Screens&lt;/span&gt;&lt;/h3&gt;" style="text;html=1;align=center;verticalAlign=middle;whiteSpace=wrap;rounded=0;rotation=-90;fillColor=none;" parent="1" vertex="1">
          <mxGeometry x="299.91" y="757.96" width="62.5" height="12.04" as="geometry" />
        </mxCell>
        <mxCell id="77" value="" style="rounded=0;whiteSpace=wrap;html=1;fillColor=none;" parent="1" vertex="1">
          <mxGeometry x="540" y="680" width="80" height="130" as="geometry" />
        </mxCell>
        <mxCell id="81" value="Window Base" style="rounded=0;whiteSpace=wrap;html=1;fillColor=none;" parent="1" vertex="1">
          <mxGeometry x="560" y="750" width="50" height="40" as="geometry" />
        </mxCell>
        <mxCell id="86" value="" style="group;fillColor=none;" parent="1" vertex="1" connectable="0">
          <mxGeometry x="450" y="680" width="80" height="70" as="geometry" />
        </mxCell>
        <mxCell id="87" value="" style="rounded=0;whiteSpace=wrap;html=1;fillColor=none;" parent="86" vertex="1">
          <mxGeometry x="10" width="70" height="50" as="geometry" />
        </mxCell>
        <mxCell id="88" value="&lt;h3&gt;&lt;span style=&quot;font-weight: normal;&quot;&gt;Apps&lt;/span&gt;&lt;/h3&gt;" style="text;html=1;align=center;verticalAlign=middle;whiteSpace=wrap;rounded=0;fillColor=none;" parent="86" vertex="1">
          <mxGeometry x="22.857142857142854" y="23.337777777777777" width="48.57142857142857" height="23.333333333333332" as="geometry" />
        </mxCell>
        <mxCell id="150" value="" style="group;fillColor=none;" parent="86" vertex="1" connectable="0">
          <mxGeometry x="29.997142857142883" y="10.003333333333332" width="34.28571428571428" height="7.777777777777778" as="geometry" />
        </mxCell>
        <mxCell id="143" value="Here be Apps" style="text;html=1;align=center;verticalAlign=middle;whiteSpace=wrap;rounded=0;fontFamily=Helvetica;fontSize=5;labelBackgroundColor=default;fillColor=none;" parent="150" vertex="1">
          <mxGeometry x="11.428571428571423" width="22.857142857142854" height="7.777777777777778" as="geometry" />
        </mxCell>
        <mxCell id="149" value="" style="group;fillColor=none;" parent="150" vertex="1" connectable="0">
          <mxGeometry width="11.428571428571427" height="7.777777777777778" as="geometry" />
        </mxCell>
        <mxCell id="144" value="" style="endArrow=none;html=1;rounded=1;strokeWidth=1;align=center;verticalAlign=middle;fontFamily=Helvetica;fontSize=11;fontColor=default;labelBackgroundColor=default;fillColor=none;" parent="149" edge="1">
          <mxGeometry width="50" height="50" relative="1" as="geometry">
            <mxPoint as="sourcePoint" />
            <mxPoint x="11.428571428571427" y="7.777777777777778" as="targetPoint" />
          </mxGeometry>
        </mxCell>
        <mxCell id="145" value="" style="endArrow=none;html=1;rounded=1;strokeWidth=1;align=center;verticalAlign=middle;fontFamily=Helvetica;fontSize=11;fontColor=default;labelBackgroundColor=default;fillColor=none;" parent="149" edge="1">
          <mxGeometry width="50" height="50" relative="1" as="geometry">
            <mxPoint y="7.777777777777778" as="sourcePoint" />
            <mxPoint x="11.428571428571427" as="targetPoint" />
          </mxGeometry>
        </mxCell>
        <mxCell id="94" value="Shell Service" style="rounded=0;whiteSpace=wrap;html=1;fontFamily=Helvetica;fontSize=11;labelBackgroundColor=default;fillColor=none;" parent="1" vertex="1">
          <mxGeometry x="379.81" y="530" width="50" height="40" as="geometry" />
        </mxCell>
        <mxCell id="100" value="" style="endArrow=ERzeroToMany;dashed=1;html=1;endFill=0;entryX=0.84;entryY=0.001;entryDx=0;entryDy=0;strokeWidth=1;startArrow=ERzeroToOne;startFill=0;entryPerimeter=0;exitX=0.086;exitY=0.999;exitDx=0;exitDy=0;fillColor=none;exitPerimeter=0;" parent="1" source="60" target="94" edge="1">
          <mxGeometry width="50" height="50" relative="1" as="geometry">
            <mxPoint x="430" y="470" as="sourcePoint" />
            <mxPoint x="395.95000000000005" y="540" as="targetPoint" />
            <Array as="points" />
          </mxGeometry>
        </mxCell>
        <mxCell id="104" value="" style="endArrow=none;html=1;strokeWidth=1;rounded=1;align=center;verticalAlign=middle;fontFamily=Helvetica;fontSize=11;fontColor=default;labelBackgroundColor=default;entryX=0.5;entryY=0;entryDx=0;entryDy=0;dashed=1;dashPattern=1 4;endFill=0;startArrow=classic;startFill=1;exitX=0.796;exitY=1.001;exitDx=0;exitDy=0;exitPerimeter=0;fillColor=none;" parent="1" source="3" target="27" edge="1">
          <mxGeometry width="50" height="50" relative="1" as="geometry">
            <mxPoint x="340" y="570" as="sourcePoint" />
            <mxPoint x="382.5" y="600" as="targetPoint" />
            <Array as="points">
              <mxPoint x="345" y="600" />
              <mxPoint x="390" y="600" />
              <mxPoint x="440" y="600" />
            </Array>
          </mxGeometry>
        </mxCell>
        <mxCell id="107" value="" style="endArrow=none;dashed=1;html=1;dashPattern=1 3;strokeWidth=1;rounded=1;align=center;verticalAlign=middle;fontFamily=Helvetica;fontSize=11;fontColor=default;labelBackgroundColor=default;exitX=0.596;exitY=1.003;exitDx=0;exitDy=0;startArrow=classic;startFill=1;exitPerimeter=0;fillColor=none;" parent="1" source="94" edge="1">
          <mxGeometry width="50" height="50" relative="1" as="geometry">
            <mxPoint x="388.75" y="630" as="sourcePoint" />
            <mxPoint x="428.75" y="600" as="targetPoint" />
            <Array as="points">
              <mxPoint x="408.75" y="600" />
            </Array>
          </mxGeometry>
        </mxCell>
        <mxCell id="108" value="" style="endArrow=ERmandOne;html=1;rounded=1;strokeWidth=1;align=center;verticalAlign=middle;fontFamily=Helvetica;fontSize=11;fontColor=default;labelBackgroundColor=default;dashed=1;dashPattern=8 8;exitX=0.101;exitY=1.003;exitDx=0;exitDy=0;entryX=0.5;entryY=0;entryDx=0;entryDy=0;endFill=0;exitPerimeter=0;fillColor=none;" parent="1" source="94" target="37" edge="1">
          <mxGeometry width="50" height="50" relative="1" as="geometry">
            <mxPoint x="490" y="500" as="sourcePoint" />
            <mxPoint x="540" y="450" as="targetPoint" />
            <Array as="points" />
          </mxGeometry>
        </mxCell>
        <mxCell id="129" style="edgeStyle=none;shape=connector;rounded=1;html=1;exitX=0.4;exitY=0.996;exitDx=0;exitDy=0;entryX=0.5;entryY=0;entryDx=0;entryDy=0;dashed=1;dashPattern=1 3;strokeWidth=1;align=center;verticalAlign=middle;fontFamily=Helvetica;fontSize=11;fontColor=default;labelBackgroundColor=default;endArrow=none;startArrow=classic;startFill=1;exitPerimeter=0;fillColor=none;" parent="1" source="114" target="27" edge="1">
          <mxGeometry relative="1" as="geometry">
            <Array as="points">
              <mxPoint x="470" y="600" />
              <mxPoint x="440" y="600" />
            </Array>
          </mxGeometry>
        </mxCell>
        <mxCell id="114" value="App Service" style="rounded=0;whiteSpace=wrap;html=1;fontFamily=Helvetica;fontSize=11;labelBackgroundColor=default;fillColor=none;" parent="1" vertex="1">
          <mxGeometry x="449.81" y="530" width="50" height="40" as="geometry" />
        </mxCell>
        <mxCell id="130" style="edgeStyle=none;shape=connector;rounded=1;html=1;exitX=0.25;exitY=1;exitDx=0;exitDy=0;dashed=1;dashPattern=1 3;strokeWidth=1;align=center;verticalAlign=middle;fontFamily=Helvetica;fontSize=11;fontColor=default;labelBackgroundColor=default;endArrow=none;startArrow=classic;startFill=1;fillColor=none;" parent="1" source="115" edge="1">
          <mxGeometry relative="1" as="geometry">
            <mxPoint x="468.75" y="600" as="targetPoint" />
            <Array as="points">
              <mxPoint x="573" y="600" />
            </Array>
          </mxGeometry>
        </mxCell>
        <mxCell id="115" value="Window Service" style="rounded=0;whiteSpace=wrap;html=1;fontFamily=Helvetica;fontSize=11;labelBackgroundColor=default;fillColor=none;" parent="1" vertex="1">
          <mxGeometry x="560" y="540" width="50" height="40" as="geometry" />
        </mxCell>
        <mxCell id="116" style="edgeStyle=none;shape=connector;rounded=1;html=1;exitX=0.355;exitY=1.007;exitDx=0;exitDy=0;align=center;verticalAlign=middle;fontFamily=Helvetica;fontSize=11;fontColor=default;labelBackgroundColor=default;endArrow=box;startArrow=block;startFill=0;endFill=0;entryX=0.688;entryY=-0.002;entryDx=0;entryDy=0;entryPerimeter=0;exitPerimeter=0;fillColor=none;" parent="1" source="94" target="37" edge="1">
          <mxGeometry relative="1" as="geometry">
            <mxPoint x="539" y="410" as="sourcePoint" />
            <mxPoint x="410" y="610" as="targetPoint" />
            <Array as="points" />
          </mxGeometry>
        </mxCell>
        <mxCell id="131" value="&lt;h3&gt;&lt;span style=&quot;font-weight: normal;&quot;&gt;Windows&lt;/span&gt;&lt;/h3&gt;" style="text;html=1;align=center;verticalAlign=middle;whiteSpace=wrap;rounded=0;rotation=90;fillColor=none;" parent="1" vertex="1">
          <mxGeometry x="512" y="766.98" width="75.32" height="17.04" as="geometry" />
        </mxCell>
        <mxCell id="37" value="" style="rounded=0;whiteSpace=wrap;html=1;fillColor=none;" parent="1" vertex="1">
          <mxGeometry x="349.81" y="680" width="70" height="50" as="geometry" />
        </mxCell>
        <mxCell id="43" value="&lt;h3&gt;&lt;span style=&quot;font-weight: normal;&quot;&gt;Shells&lt;/span&gt;&lt;/h3&gt;" style="text;html=1;align=center;verticalAlign=middle;whiteSpace=wrap;rounded=0;fillColor=none;" parent="1" vertex="1">
          <mxGeometry x="365.00000000000006" y="705" width="39.62" height="20" as="geometry" />
        </mxCell>
        <mxCell id="140" value="" style="group;fillColor=none;" parent="1" vertex="1" connectable="0">
          <mxGeometry x="370.09999999999997" y="690" width="29.810000000000002" height="10" as="geometry" />
        </mxCell>
        <mxCell id="133" value="Here be Shells" style="text;html=1;align=center;verticalAlign=middle;whiteSpace=wrap;rounded=0;fontFamily=Helvetica;fontSize=5;labelBackgroundColor=default;fillColor=none;" parent="140" vertex="1">
          <mxGeometry width="20" height="10" as="geometry" />
        </mxCell>
        <mxCell id="139" value="" style="endArrow=none;html=1;rounded=1;strokeWidth=1;align=center;verticalAlign=middle;fontFamily=Helvetica;fontSize=11;fontColor=default;labelBackgroundColor=default;fillColor=none;" parent="140" edge="1">
          <mxGeometry width="50" height="50" relative="1" as="geometry">
            <mxPoint x="19.810000000000002" as="sourcePoint" />
            <mxPoint x="29.810000000000002" y="10" as="targetPoint" />
          </mxGeometry>
        </mxCell>
        <mxCell id="137" value="" style="endArrow=none;html=1;rounded=1;strokeWidth=1;align=center;verticalAlign=middle;fontFamily=Helvetica;fontSize=11;fontColor=default;labelBackgroundColor=default;fillColor=none;" parent="140" edge="1">
          <mxGeometry width="50" height="50" relative="1" as="geometry">
            <mxPoint x="19.810000000000002" y="10" as="sourcePoint" />
            <mxPoint x="29.810000000000002" as="targetPoint" />
          </mxGeometry>
        </mxCell>
        <mxCell id="153" value="" style="endArrow=ERzeroToMany;dashed=1;html=1;endFill=0;exitX=0.85;exitY=1.01;exitDx=0;exitDy=0;entryX=0.25;entryY=0;entryDx=0;entryDy=0;strokeWidth=1;startArrow=ERzeroToOne;startFill=0;fillColor=none;exitPerimeter=0;" parent="1" source="125" target="115" edge="1">
          <mxGeometry width="50" height="50" relative="1" as="geometry">
            <mxPoint x="570" y="350" as="sourcePoint" />
            <mxPoint x="576" y="429" as="targetPoint" />
          </mxGeometry>
        </mxCell>
        <mxCell id="160" value="&lt;h3&gt;Userland&lt;/h3&gt;" style="text;html=1;align=center;verticalAlign=middle;whiteSpace=wrap;rounded=0;fillColor=none;" parent="1" vertex="1">
          <mxGeometry x="290" y="289.43" width="68.75" height="50.57" as="geometry" />
        </mxCell>
        <mxCell id="162" value="&lt;h3&gt;Services Manager&lt;/h3&gt;" style="text;html=1;align=center;verticalAlign=middle;whiteSpace=wrap;rounded=0;fillColor=none;" parent="1" vertex="1">
          <mxGeometry x="510" y="620" width="68.75" height="30" as="geometry" />
        </mxCell>
        <mxCell id="78" value="&lt;h3 style=&quot;&quot;&gt;&lt;br&gt;&lt;/h3&gt;" style="rounded=0;whiteSpace=wrap;html=1;align=center;fillColor=none;" parent="1" vertex="1">
          <mxGeometry x="449.81" y="750" width="80" height="70" as="geometry" />
        </mxCell>
        <mxCell id="82" value="App Base" style="rounded=0;whiteSpace=wrap;html=1;fillColor=none;" parent="1" vertex="1">
          <mxGeometry x="464.81" y="760" width="50" height="31" as="geometry" />
        </mxCell>
        <mxCell id="132" value="&lt;h3&gt;&lt;span style=&quot;font-weight: normal;&quot;&gt;App&amp;nbsp; SDK&lt;/span&gt;&lt;/h3&gt;" style="text;html=1;align=center;verticalAlign=middle;whiteSpace=wrap;rounded=0;fillColor=none;" parent="1" vertex="1">
          <mxGeometry x="449.81" y="800" width="80" height="20" as="geometry" />
        </mxCell>
        <mxCell id="96" style="edgeStyle=none;shape=connector;rounded=1;html=1;exitX=0.5;exitY=0;exitDx=0;exitDy=0;entryX=0.43;entryY=1.001;entryDx=0;entryDy=0;dashed=1;align=center;verticalAlign=middle;fontFamily=Helvetica;fontSize=11;fontColor=default;labelBackgroundColor=default;endArrow=classic;endFill=1;dashPattern=1 4;entryPerimeter=0;fillColor=none;" parent="1" source="82" target="87" edge="1">
          <mxGeometry relative="1" as="geometry">
            <Array as="points" />
          </mxGeometry>
        </mxCell>
        <mxCell id="164" value="" style="endArrow=classic;dashed=1;html=1;dashPattern=1 4;strokeWidth=1;exitX=0.5;exitY=0;exitDx=0;exitDy=0;entryX=0.5;entryY=1;entryDx=0;entryDy=0;endFill=1;arcSize=30;fillColor=none;" parent="1" source="24" target="81" edge="1">
          <mxGeometry width="50" height="50" relative="1" as="geometry">
            <mxPoint x="410" y="830" as="sourcePoint" />
            <mxPoint x="460" y="780" as="targetPoint" />
            <Array as="points">
              <mxPoint x="450" y="830" />
              <mxPoint x="585" y="830" />
            </Array>
          </mxGeometry>
        </mxCell>
        <mxCell id="168" style="edgeStyle=none;html=1;exitX=0.5;exitY=1;exitDx=0;exitDy=0;dashed=1;dashPattern=1 4;endArrow=none;endFill=0;startArrow=classic;startFill=1;arcSize=40;fillColor=none;" parent="1" source="82" edge="1">
          <mxGeometry relative="1" as="geometry">
            <mxPoint x="460" y="830" as="targetPoint" />
            <mxPoint x="480.5" y="771" as="sourcePoint" />
            <Array as="points">
              <mxPoint x="490" y="830" />
            </Array>
          </mxGeometry>
        </mxCell>
        <mxCell id="59" style="edgeStyle=none;shape=connector;rounded=1;html=1;exitX=0.5;exitY=0;exitDx=0;exitDy=0;dashed=1;align=center;verticalAlign=middle;fontFamily=Helvetica;fontSize=11;fontColor=default;labelBackgroundColor=default;endArrow=classic;endFill=1;dashPattern=1 4;entryX=0.429;entryY=0.981;entryDx=0;entryDy=0;entryPerimeter=0;fillColor=none;" parent="1" source="5" target="36" edge="1">
          <mxGeometry relative="1" as="geometry">
            <mxPoint x="295" y="730" as="targetPoint" />
          </mxGeometry>
        </mxCell>
        <mxCell id="167" style="edgeStyle=none;html=1;dashed=1;dashPattern=1 4;endArrow=none;endFill=0;rounded=1;curved=0;startArrow=classic;startFill=1;exitX=0.555;exitY=1.006;exitDx=0;exitDy=0;exitPerimeter=0;arcSize=40;fillColor=none;" parent="1" source="26" edge="1">
          <mxGeometry relative="1" as="geometry">
            <mxPoint x="420" y="830" as="targetPoint" />
            <Array as="points">
              <mxPoint x="393" y="830" />
            </Array>
          </mxGeometry>
        </mxCell>
        <mxCell id="176" style="edgeStyle=none;shape=connector;rounded=1;html=1;exitX=0.65;exitY=1.009;exitDx=0;exitDy=0;align=center;verticalAlign=middle;fontFamily=Helvetica;fontSize=11;fontColor=default;labelBackgroundColor=default;endArrow=box;startArrow=block;startFill=0;endFill=0;entryX=0.323;entryY=-0.001;entryDx=0;entryDy=0;entryPerimeter=0;exitPerimeter=0;fillColor=none;" parent="1" source="114" target="87" edge="1">
          <mxGeometry relative="1" as="geometry">
            <mxPoint x="501.38" y="520" as="sourcePoint" />
            <mxPoint x="480" y="680" as="targetPoint" />
            <Array as="points" />
          </mxGeometry>
        </mxCell>
        <mxCell id="175" value="" style="endArrow=ERmandOne;html=1;rounded=1;strokeWidth=1;align=center;verticalAlign=middle;fontFamily=Helvetica;fontSize=11;fontColor=default;labelBackgroundColor=default;dashed=1;dashPattern=8 8;exitX=0.89;exitY=0.998;exitDx=0;exitDy=0;endFill=0;exitPerimeter=0;entryX=0.5;entryY=0;entryDx=0;entryDy=0;fillColor=none;" parent="1" source="114" target="87" edge="1">
          <mxGeometry width="50" height="50" relative="1" as="geometry">
            <mxPoint x="489.38" y="520" as="sourcePoint" />
            <mxPoint x="500" y="670" as="targetPoint" />
            <Array as="points" />
          </mxGeometry>
        </mxCell>
        <mxCell id="178" value="Launch TDE" style="shape=flexArrow;endArrow=classic;html=1;width=16.32;endSize=6.619199999999999;align=right;fillColor=none;" parent="1" edge="1">
          <mxGeometry x="0.5556" y="-1" width="50" height="50" relative="1" as="geometry">
            <mxPoint x="215" y="468.86" as="sourcePoint" />
            <mxPoint x="305" y="468.86" as="targetPoint" />
            <mxPoint as="offset" />
          </mxGeometry>
        </mxCell>
        <mxCell id="182" value="" style="group;fillColor=none;" parent="1" vertex="1" connectable="0">
          <mxGeometry x="405" y="375" width="199" height="114.57" as="geometry" />
        </mxCell>
        <mxCell id="60" value="" style="rounded=0;whiteSpace=wrap;html=1;fontFamily=Helvetica;fontSize=11;labelBackgroundColor=default;fillColor=none;" parent="182" vertex="1">
          <mxGeometry width="199" height="94" as="geometry" />
        </mxCell>
        <mxCell id="125" value="" style="rounded=0;whiteSpace=wrap;html=1;fontFamily=Helvetica;fontSize=11;labelBackgroundColor=default;fillColor=none;" parent="182" vertex="1">
          <mxGeometry x="4" y="4" width="192" height="61" as="geometry" />
        </mxCell>
        <mxCell id="155" value="Shell Manager" style="text;html=1;align=center;verticalAlign=middle;whiteSpace=wrap;rounded=0;fontStyle=0;fillColor=none;" parent="182" vertex="1">
          <mxGeometry x="69" y="66.14" width="91" height="27.86" as="geometry" />
        </mxCell>
        <mxCell id="E7djAsSUpNhthVeq93sm-232" value="Desktop" style="rounded=0;whiteSpace=wrap;html=1;fillColor=none;" vertex="1" parent="182">
          <mxGeometry x="11" y="14" width="49" height="39" as="geometry" />
        </mxCell>
        <mxCell id="E7djAsSUpNhthVeq93sm-233" value="Shell" style="text;html=1;align=center;verticalAlign=middle;whiteSpace=wrap;rounded=0;fontStyle=0;fillColor=none;" vertex="1" parent="182">
          <mxGeometry x="81.5" y="25.5" width="36" height="18" as="geometry" />
        </mxCell>
        <mxCell id="197" value="&lt;h3&gt;&lt;span style=&quot;font-weight: normal;&quot;&gt;Main Screen&lt;/span&gt;&lt;/h3&gt;" style="text;html=1;align=center;verticalAlign=middle;whiteSpace=wrap;rounded=0;fillColor=none;" parent="182" vertex="1">
          <mxGeometry x="69" y="98" width="91" height="16.57" as="geometry" />
        </mxCell>
        <mxCell id="221" value="TDE App Windows" style="rounded=0;whiteSpace=wrap;html=1;fillColor=none;" parent="182" vertex="1">
          <mxGeometry x="132" y="14" width="54.5" height="38.14" as="geometry" />
        </mxCell>
        <mxCell id="186" value="" style="shape=actor;whiteSpace=wrap;html=1;fillColor=none;" parent="1" vertex="1">
          <mxGeometry x="430" y="289.43" width="40" height="60" as="geometry" />
        </mxCell>
        <mxCell id="188" value="" style="endArrow=none;html=1;entryX=0.258;entryY=0.18;entryDx=0;entryDy=0;entryPerimeter=0;exitX=0;exitY=0;exitDx=0;exitDy=0;fillColor=none;" parent="1" source="223" target="186" edge="1">
          <mxGeometry width="50" height="50" relative="1" as="geometry">
            <mxPoint x="490" y="389.43" as="sourcePoint" />
            <mxPoint x="540" y="339.43" as="targetPoint" />
          </mxGeometry>
        </mxCell>
        <mxCell id="189" value="" style="endArrow=none;html=1;entryX=0.751;entryY=0.179;entryDx=0;entryDy=0;entryPerimeter=0;exitX=1;exitY=0;exitDx=0;exitDy=0;fillColor=none;" parent="1" source="16" target="186" edge="1">
          <mxGeometry width="50" height="50" relative="1" as="geometry">
            <mxPoint x="490" y="389.43" as="sourcePoint" />
            <mxPoint x="540" y="339.43" as="targetPoint" />
          </mxGeometry>
        </mxCell>
        <mxCell id="190" value="" style="group;fontSize=12;fillColor=none;" parent="1" vertex="1" connectable="0">
          <mxGeometry x="130" y="500" width="160" height="180" as="geometry" />
        </mxCell>
        <mxCell id="179" value="" style="rounded=0;whiteSpace=wrap;html=1;fillColor=none;" parent="190" vertex="1">
          <mxGeometry x="10" y="10" width="150" height="160" as="geometry" />
        </mxCell>
        <mxCell id="205" value="" style="group;fillColor=none;" parent="190" vertex="1" connectable="0">
          <mxGeometry x="20" y="20" width="131.25" height="10" as="geometry" />
        </mxCell>
        <mxCell id="62" value="" style="endArrow=classic;html=1;rounded=1;align=center;verticalAlign=middle;fontFamily=Helvetica;fontSize=11;fontColor=default;labelBackgroundColor=default;startArrow=none;startFill=0;endFill=1;fillColor=none;" parent="205" edge="1">
          <mxGeometry width="50" height="50" relative="1" as="geometry">
            <mxPoint x="71.25" y="4.8799999999999955" as="sourcePoint" />
            <mxPoint x="131.25" y="4.8799999999999955" as="targetPoint" />
          </mxGeometry>
        </mxCell>
        <mxCell id="63" value="Direct Mount" style="text;html=1;align=center;verticalAlign=middle;whiteSpace=wrap;rounded=0;fontFamily=Helvetica;fontSize=10;labelBackgroundColor=default;fillColor=none;" parent="205" vertex="1">
          <mxGeometry width="80" height="10" as="geometry" />
        </mxCell>
        <mxCell id="206" value="" style="group;fillColor=none;" parent="190" vertex="1" connectable="0">
          <mxGeometry x="27.5" y="40" width="123.75" height="10" as="geometry" />
        </mxCell>
        <mxCell id="65" value="" style="endArrow=classic;html=1;strokeWidth=1;rounded=1;align=center;verticalAlign=middle;fontFamily=Helvetica;fontSize=11;fontColor=default;labelBackgroundColor=default;endFill=1;dashed=1;dashPattern=1 4;fillColor=none;" parent="206" edge="1">
          <mxGeometry width="50" height="50" relative="1" as="geometry">
            <mxPoint x="63.75" y="4.8799999999999955" as="sourcePoint" />
            <mxPoint x="123.75" y="4.8799999999999955" as="targetPoint" />
          </mxGeometry>
        </mxCell>
        <mxCell id="66" value="Inheritence" style="text;html=1;align=center;verticalAlign=middle;whiteSpace=wrap;rounded=0;fontFamily=Helvetica;fontSize=10;labelBackgroundColor=default;fillColor=none;" parent="206" vertex="1">
          <mxGeometry x="10" width="50" height="10" as="geometry" />
        </mxCell>
        <mxCell id="208" value="" style="group;fillColor=none;" parent="190" vertex="1" connectable="0">
          <mxGeometry x="4.1200000000000045" y="60" width="147.13" height="10" as="geometry" />
        </mxCell>
        <mxCell id="68" value="Grab &amp;amp; Validate" style="text;html=1;align=center;verticalAlign=middle;whiteSpace=wrap;rounded=0;fontFamily=Helvetica;fontSize=10;labelBackgroundColor=default;fillColor=none;" parent="208" vertex="1">
          <mxGeometry x="10" width="77.13" height="10" as="geometry" />
        </mxCell>
        <mxCell id="69" style="edgeStyle=none;shape=connector;rounded=1;html=1;align=center;verticalAlign=middle;fontFamily=Helvetica;fontSize=11;fontColor=default;labelBackgroundColor=default;endArrow=box;startArrow=block;startFill=0;endFill=0;entryX=1;entryY=0.75;entryDx=0;entryDy=0;fillColor=none;" parent="208" edge="1">
          <mxGeometry relative="1" as="geometry">
            <mxPoint x="147.13" y="5.25" as="sourcePoint" />
            <mxPoint x="87.13" y="4.75" as="targetPoint" />
          </mxGeometry>
        </mxCell>
        <mxCell id="209" value="" style="group;fillColor=none;" parent="190" vertex="1" connectable="0">
          <mxGeometry x="7.5" y="76" width="143.75" height="30" as="geometry" />
        </mxCell>
        <mxCell id="70" value="Callback Register &amp;amp; Call" style="text;html=1;align=center;verticalAlign=middle;whiteSpace=wrap;rounded=0;fontFamily=Helvetica;fontSize=10;labelBackgroundColor=default;fillColor=none;" parent="209" vertex="1">
          <mxGeometry x="10" width="70" height="30" as="geometry" />
        </mxCell>
        <mxCell id="72" value="" style="endArrow=ERzeroToOne;dashed=1;html=1;endFill=0;strokeWidth=1;startArrow=ERzeroToMany;startFill=0;fillColor=none;" parent="209" edge="1">
          <mxGeometry width="50" height="50" relative="1" as="geometry">
            <mxPoint x="83.75" y="14.879999999999995" as="sourcePoint" />
            <mxPoint x="143.75" y="14.879999999999995" as="targetPoint" />
            <Array as="points" />
          </mxGeometry>
        </mxCell>
        <mxCell id="210" value="" style="group;fillColor=none;" parent="190" vertex="1" connectable="0">
          <mxGeometry x="43.129999999999995" y="110" width="108.12" height="10" as="geometry" />
        </mxCell>
        <mxCell id="119" value="Trigger" style="text;html=1;align=center;verticalAlign=middle;whiteSpace=wrap;rounded=0;fontFamily=Helvetica;fontSize=10;labelBackgroundColor=default;fillColor=none;" parent="210" vertex="1">
          <mxGeometry width="60" height="10" as="geometry" />
        </mxCell>
        <mxCell id="120" style="edgeStyle=none;html=1;dashed=1;endArrow=oval;endFill=0;fillColor=none;" parent="210" edge="1">
          <mxGeometry relative="1" as="geometry">
            <mxPoint x="101.87" y="5" as="targetPoint" />
            <mxPoint x="48.120000000000005" y="4.8799999999999955" as="sourcePoint" />
            <Array as="points" />
          </mxGeometry>
        </mxCell>
        <mxCell id="122" style="edgeStyle=none;shape=connector;rounded=1;html=1;exitX=0.5;exitY=1;exitDx=0;exitDy=0;entryX=0.398;entryY=0.686;entryDx=0;entryDy=0;entryPerimeter=0;dashed=1;dashPattern=1 3;strokeWidth=1;align=center;verticalAlign=middle;fontFamily=Helvetica;fontSize=11;fontColor=default;labelBackgroundColor=default;endArrow=none;fillColor=none;" parent="210" source="119" target="119" edge="1">
          <mxGeometry relative="1" as="geometry" />
        </mxCell>
        <mxCell id="211" value="" style="group;fillColor=none;" parent="190" vertex="1" connectable="0">
          <mxGeometry x="40" y="130" width="109.25" height="10" as="geometry" />
        </mxCell>
        <mxCell id="121" value="" style="endArrow=ERmandOne;html=1;rounded=1;strokeWidth=1;align=center;verticalAlign=middle;fontFamily=Helvetica;fontSize=11;fontColor=default;labelBackgroundColor=default;dashed=1;dashPattern=8 8;exitX=1;exitY=0.5;exitDx=0;exitDy=0;endFill=0;fillColor=none;" parent="211" edge="1">
          <mxGeometry width="50" height="50" relative="1" as="geometry">
            <mxPoint x="51.25" y="4.8799999999999955" as="sourcePoint" />
            <mxPoint x="109.25" y="4.8799999999999955" as="targetPoint" />
            <Array as="points" />
          </mxGeometry>
        </mxCell>
        <mxCell id="123" value="Scan dir" style="text;html=1;align=center;verticalAlign=middle;whiteSpace=wrap;rounded=0;fontFamily=Helvetica;fontSize=10;labelBackgroundColor=default;fillColor=none;" parent="211" vertex="1">
          <mxGeometry width="60" height="10" as="geometry" />
        </mxCell>
        <mxCell id="212" value="" style="group;fillColor=none;" parent="190" vertex="1" connectable="0">
          <mxGeometry x="40" y="150" width="109.25" height="10" as="geometry" />
        </mxCell>
        <mxCell id="213" value="" style="endArrow=diamond;html=1;rounded=1;strokeWidth=1;align=center;verticalAlign=middle;fontFamily=Helvetica;fontSize=11;fontColor=default;labelBackgroundColor=default;dashed=1;exitX=1;exitY=0.5;exitDx=0;exitDy=0;endFill=0;fillColor=none;" parent="212" edge="1">
          <mxGeometry width="50" height="50" relative="1" as="geometry">
            <mxPoint x="51.25" y="4.8799999999999955" as="sourcePoint" />
            <mxPoint x="109.25" y="4.8799999999999955" as="targetPoint" />
            <Array as="points" />
          </mxGeometry>
        </mxCell>
        <mxCell id="214" value="&lt;font style=&quot;font-size: 10px; color: light-dark(rgb(0, 0, 0), rgb(255, 255, 255));&quot;&gt;Pass Process&lt;/font&gt;" style="text;html=1;align=center;verticalAlign=middle;whiteSpace=wrap;rounded=0;fontFamily=Helvetica;fontSize=11;labelBackgroundColor=default;fillColor=none;" parent="190" vertex="1">
          <mxGeometry x="20" y="150" width="77.5" height="10" as="geometry" />
        </mxCell>
        <mxCell id="194" style="edgeStyle=none;html=1;dashed=1;endArrow=oval;endFill=0;exitX=0.733;exitY=1.017;exitDx=0;exitDy=0;exitPerimeter=0;entryX=0.176;entryY=0.002;entryDx=0;entryDy=0;entryPerimeter=0;fillColor=none;" parent="1" source="2" target="4" edge="1">
          <mxGeometry relative="1" as="geometry">
            <mxPoint x="362" y="510" as="targetPoint" />
            <mxPoint x="331.25" y="404.88" as="sourcePoint" />
            <Array as="points" />
          </mxGeometry>
        </mxCell>
        <mxCell id="195" value="Start All Services" style="text;html=1;align=center;verticalAlign=middle;whiteSpace=wrap;rounded=0;fontSize=5;fillColor=none;" parent="1" vertex="1">
          <mxGeometry x="355" y="492.43" width="30.19" height="10" as="geometry" />
        </mxCell>
        <mxCell id="192" style="edgeStyle=none;html=1;dashed=1;endArrow=oval;endFill=0;exitX=0.315;exitY=0.997;exitDx=0;exitDy=0;entryX=0.394;entryY=0.005;entryDx=0;entryDy=0;fillColor=none;entryPerimeter=0;exitPerimeter=0;" parent="1" source="125" target="114" edge="1">
          <mxGeometry relative="1" as="geometry">
            <mxPoint x="545.63" y="469.43" as="targetPoint" />
            <mxPoint x="485.63" y="469.43" as="sourcePoint" />
            <Array as="points" />
          </mxGeometry>
        </mxCell>
        <mxCell id="199" style="edgeStyle=none;html=1;exitX=1;exitY=0.75;exitDx=0;exitDy=0;dashed=1;endArrow=diamond;endFill=0;entryX=0;entryY=0.5;entryDx=0;entryDy=0;fillColor=none;" parent="1" source="114" target="115" edge="1">
          <mxGeometry relative="1" as="geometry">
            <mxPoint x="550" y="560" as="targetPoint" />
          </mxGeometry>
        </mxCell>
        <mxCell id="201" style="edgeStyle=none;shape=connector;rounded=1;html=1;exitX=0.607;exitY=1;exitDx=0;exitDy=0;align=center;verticalAlign=middle;fontFamily=Helvetica;fontSize=11;fontColor=default;labelBackgroundColor=default;endArrow=box;startArrow=block;startFill=0;endFill=0;entryX=0.75;entryY=0;entryDx=0;entryDy=0;fillColor=none;exitPerimeter=0;" parent="1" source="115" target="202" edge="1">
          <mxGeometry relative="1" as="geometry">
            <mxPoint x="585.3199999999999" y="580" as="sourcePoint" />
            <mxPoint x="585.3199999999999" y="680" as="targetPoint" />
          </mxGeometry>
        </mxCell>
        <mxCell id="202" value="TDE Window" style="rounded=0;whiteSpace=wrap;html=1;fillColor=none;" parent="1" vertex="1">
          <mxGeometry x="553.25" y="700" width="50" height="30" as="geometry" />
        </mxCell>
        <mxCell id="203" style="edgeStyle=none;shape=connector;rounded=1;html=1;exitX=0.303;exitY=-0.008;exitDx=0;exitDy=0;dashed=1;align=center;verticalAlign=middle;fontFamily=Helvetica;fontSize=11;fontColor=default;labelBackgroundColor=default;endArrow=classic;endFill=1;dashPattern=1 4;exitPerimeter=0;entryX=0.429;entryY=0.981;entryDx=0;entryDy=0;entryPerimeter=0;fillColor=none;" parent="1" source="81" target="202" edge="1">
          <mxGeometry relative="1" as="geometry">
            <mxPoint x="581" y="750" as="sourcePoint" />
            <mxPoint x="585" y="730" as="targetPoint" />
          </mxGeometry>
        </mxCell>
        <mxCell id="215" value="Launch App" style="text;html=1;align=right;verticalAlign=middle;whiteSpace=wrap;rounded=0;rotation=0;fontSize=6;fillColor=none;" parent="1" vertex="1">
          <mxGeometry x="468" y="512" width="25" height="15" as="geometry" />
        </mxCell>
        <mxCell id="223" value="TDE App&lt;br&gt;Screens" style="rounded=0;whiteSpace=wrap;html=1;fillColor=none;" parent="1" vertex="1">
          <mxGeometry x="290" y="368.86" width="96.06" height="60" as="geometry" />
        </mxCell>
        <mxCell id="225" style="edgeStyle=none;html=1;exitX=1;exitY=0.5;exitDx=0;exitDy=0;entryX=-0.001;entryY=0.838;entryDx=0;entryDy=0;entryPerimeter=0;fillColor=none;" parent="1" source="2" target="16" edge="1">
          <mxGeometry relative="1" as="geometry" />
        </mxCell>
        <mxCell id="227" style="edgeStyle=none;html=1;exitX=1;exitY=0.75;exitDx=0;exitDy=0;dashed=1;endArrow=diamond;endFill=0;entryX=1;entryY=0.5;entryDx=0;entryDy=0;fillColor=none;" parent="1" source="114" target="3" edge="1">
          <mxGeometry relative="1" as="geometry">
            <mxPoint x="500" y="579.6" as="sourcePoint" />
            <mxPoint x="560" y="579.6" as="targetPoint" />
            <Array as="points">
              <mxPoint x="540" y="560" />
              <mxPoint x="540" y="590" />
              <mxPoint x="370" y="590" />
              <mxPoint x="370" y="560" />
            </Array>
          </mxGeometry>
        </mxCell>
        <mxCell id="228" value="App launches...&lt;br&gt;...window" style="text;html=1;align=center;verticalAlign=middle;whiteSpace=wrap;rounded=0;fontSize=7;fillColor=none;" parent="1" vertex="1">
          <mxGeometry x="504.08" y="540" width="55.92" height="20" as="geometry" />
        </mxCell>
        <mxCell id="230" value="...screen" style="text;html=1;align=center;verticalAlign=middle;whiteSpace=wrap;rounded=0;fontSize=7;fillColor=none;" parent="1" vertex="1">
          <mxGeometry x="490.0799999999999" y="575" width="55.92" height="20" as="geometry" />
        </mxCell>
        <mxCell id="MLFS99LFTOQ_hmZUKQco-231" value="&lt;span style=&quot;font-size: 6px;&quot;&gt;To SDK&lt;/span&gt;" style="text;html=1;align=center;verticalAlign=middle;whiteSpace=wrap;rounded=0;rotation=0;" parent="1" vertex="1">
          <mxGeometry x="325" y="887" width="30" height="10" as="geometry" />
        </mxCell>
      </root>
    </mxGraphModel>
  </diagram>
</mxfile>
